<svg xmlns="http://www.w3.org/2000/svg" aria-hidden="true" focusable="false"><defs><mask xmlns="http://www.w3.org/2000/svg" id="intro-atlas-native-counters" maskUnits="userSpaceOnUse" x="0" y="0" width="1676" height="454" mask-type="luminance"><rect x="0" y="0" width="1676" height="454" fill="white" /><path d="M477 144h2l.876 2.372c9.33 25.237 18.814 50.415 28.328 75.584q4.258 11.264 8.507 22.532l5.476 14.518c3.326 8.822 6.659 17.641 10.09 26.424l1.451 3.722q1.282 3.277 2.583 6.546l1.1 2.806.94 2.37C539 303 539 303 539 307H419c3.375-12.373 3.375-12.373 4.86-16.409l1.019-2.793 1.086-2.935 1.167-3.19q1.246-3.404 2.498-6.806c2.027-5.51 4.042-11.025 6.055-16.54l1.4-3.832c5.152-14.097 10.196-28.23 15.228-42.37A6547 6547 0 0 1 477 144" fill="black" />
<path d="m1063.688 316.75 3.162-.023c6.433.015 12.708.5 19.083 1.29l2.363.285q2.852.346 5.705.698c.209 9.866.368 19.732.466 29.6.047 4.584.11 9.165.212 13.748.099 4.428.152 8.856.175 13.285q.026 2.526.098 5.05c.413 14.807.413 14.807-5.289 21.258-2.384 2.228-2.384 2.228-4.662 4.059l-1.83 1.51c-13.905 10.577-29.974 15.403-47.33 13.064-12.37-2.656-23.113-9.568-30.84-19.574-8.503-13.693-11.495-28.303-8.352-44.3.923-2.726 2.001-5.16 3.352-7.7l1.472-2.79c7.723-13.255 19.72-21.577 34.082-26.35 9.387-2.342 18.475-3.18 28.133-3.11" fill="black" />
<path d="m1603 70 11.625-.187 3.631-.083c6.5-.051 11.33.162 16.353 4.735 5.964 7.7 6.042 14.04 5.391 23.535-1.09 5.148-3.846 8.818-8 12-9.047 4.683-19.014 3-29 3z" fill="black" />
</mask><clipPath id="intro-wordmark-window" clipPathUnits="userSpaceOnUse"><rect id="intro-wordmark-reveal" x="325" y="0" width="1360" height="454" /></clipPath><g id="intro-native-atlas-mark">
<g id="intro-atlas-emblem"><path id="intro-atlas-human" d="M264.188 204.125c8.06 1.85 13 5.114 17.813 11.875 2.28 4.561 1.615 10.078 1 15-3.805 11.056-10.655 21.394-21.063 27.125-7.192 3.15-12.504 2.037-19.937-.125-2.333-.074-4.67-.095-7 0-2.02 5.93-2.02 5.93-3.81 11.93-6.919 24.665-22.344 46.533-44.19 60.07h-2v2a4305 4305 0 0 0 12.437-.437l3.588-.12 3.408-.127 3.158-.11c2.358.059 2.358.059 3.408-1.206 15.359-1.177 35.524-1.825 48.72 7.172 3.22 3.042 3.713 6.314 3.968 10.515-.577 11.163-6.922 17.916-14.59 25.27-5.521 5.321-10.17 11.112-14.75 17.247a416 416 0 0 1-4.125 5.382C219.496 409.588 211.708 425.196 204 441h-2c-1.276-13.813-2.228-27.618-2.354-41.49-.02-1.963-.06-3.925-.099-5.887-.023-11.08 2.473-19.928 9.141-28.81l1.303-1.78c3.73-4.953 7.89-9.48 13.01-13.033h2v-2c-17.272 5.512-31.946 13.641-47.258 23.254-20.792 12.96-42.68 19.81-66.537 24.825C73.706 404.042 39.36 420.633 9 444c-.879-2.401-1.194-3.544-.171-5.937 9.21-13.36 21.018-24.662 34.246-33.993a218 218 0 0 0 5.82-4.265C73.738 381.24 102.707 367.44 131 355l-1.496-1.023-1.941-1.352-1.934-1.336c-2.189-1.732-2.577-2.849-2.902-5.61-.312-8.63 1.732-12.812 7.48-19.09.82-.874 1.638-1.75 2.481-2.651 8.11-8.738 14.279-18.729 19.938-29.188l1.04-1.915c1.479-2.824 2.334-4.598 2.334-7.835l-2.507-.043c-42.99-1.718-81.94-23.474-111.93-53.144l-2.008-1.98C35.261 225.51 31.526 220.97 28 216l1-2 1.625 1.398C47.312 229.286 66.593 238.896 87 246l2.692 1c15.846 4.79 32.147 6.494 48.621 6.438h2.049c9.709-.034 19.054-.957 28.638-2.438l2.387-.348c28.963-4.358 59.504-17.898 80.578-38.504 8.002-7.793 8.002-7.793 12.223-8.023" /><g id="intro-atlas-globe"><path id="intro-atlas-dot-00" class="intro-dot" d="M126 51c4.22 2.389 7.198 5.473 9 10-.32 5.882-1.605 9.83-6 13.813-4.651 1.84-9.074 1.974-14 1.187-3.649-1.882-5.733-4.6-8-8-.467-4.752-.491-7.036 1.688-11.312 4.896-5.691 9.95-7.121 17.312-5.688" />
<path id="intro-atlas-dot-01" class="intro-dot" d="M161 83c4.622 1.722 7.516 3.7 10 8 .715 3.961.407 7.057-1.187 10.75-4.762 5.91-4.762 5.91-9.149 6.637-5.695.248-9.295-.444-13.664-4.387-2.163-2.74-2.924-4.487-3.437-7.937.746-5.224 3.294-8.098 7.25-11.438C154.62 82.684 156.774 82.472 161 83" />
<path id="intro-atlas-dot-02" class="intro-dot" d="M209 69c3.671 2.033 6.798 4.913 8 9 .465 4.186.27 6.461-1.625 10.25-3.545 4.104-6.537 5.487-11.875 6.25-4.732-.676-6.176-2.098-9.5-5.5-2.546-3.472-2.435-6.792-2-11 3.678-7.083 8.827-10.727 17-9" />
<path id="intro-atlas-dot-03" class="intro-dot" d="M152 129c4.228 1.674 6.167 3.851 8 8 .632 3.23.6 5.071-1.207 7.867-2.631 3.21-4.896 5.548-8.793 7.133-5.234.485-8.557-.173-13-3-2.18-1.889-2.866-3.217-3.352-6.047-.271-4.262-.023-7.084 2.727-10.453 4.739-4.513 9.319-4.002 15.625-3.5" />
<path id="intro-atlas-dot-04" class="intro-dot" d="M198 114c3.635 1.624 4.774 2.661 7 6 .676 3.735.808 7.418-.945 10.852-2.565 3.274-5.026 5.232-9.055 6.148-4.677.546-7.897.667-12-1.812-3.127-3.42-3.348-6.638-3.281-11.192.587-4.167 3.39-6.257 6.469-8.808 3.986-1.684 7.545-1.769 11.812-1.188" />
<path id="intro-atlas-dot-05" class="intro-dot" d="M217 24c4.315 2.284 7.135 4.44 9 9 .588 4.02.408 7.082-1.25 10.813-3.094 3.867-4.568 5.034-9.625 5.687-4.806-.18-6.859-2.078-10.125-5.5-2.537-4.213-2.704-8.195-2-13 3.436-5.767 7.337-7.8 14-7" />
<path id="intro-atlas-dot-06" class="intro-dot" d="M104 142c3.875 1.973 6.942 4.113 9 8 .563 2.813.563 2.813 0 6-2.156 3.217-4.5 6.25-8 8-5.573.372-9.237.248-14-3-2.547-3.016-3.835-5.118-4.562-9 .793-4.231 2.564-5.93 5.562-9 3.71-1.855 7.951-1.454 12-1" />
<path id="intro-atlas-dot-07" class="intro-dot" d="M187.875 157.313c2.125 1.688 2.125 1.688 4.125 4.688-.078 4.861-.235 7.022-3.25 10.874-4.836 3.738-8.612 4.772-14.75 4.125-5.538-3.076-5.538-3.076-7-6-.5-2.625-.5-2.625 0-6 5.175-7.589 11.788-11.836 20.875-7.687" />
<path id="intro-atlas-dot-08" class="intro-dot" d="M249 56c3.44 2.094 5.78 4.12 7 8 .456 5.016.13 8.007-3 12-2.7 2.7-4.198 3.883-8 4.438-3.418-.499-5.28-1.322-8-3.438-2.73-4.452-2.87-8.93-2-14 3.14-6.521 7.047-8.214 14-7" />
<path id="intro-atlas-dot-09" class="intro-dot" d="M142.25 170.25c2.78 1.769 4.25 2.833 5.75 5.75.5 2.938.5 2.938 0 6-3.106 3.796-6.222 6.566-11.148 7.336-5.457.096-8.539-.67-12.852-4.336-1.57-3.139-1.352-5.539-1-9 5.325-6.656 11.019-8.916 19.25-5.75" />
<path id="intro-atlas-dot-10" class="intro-dot" d="M242 100c2.707 2.91 3.785 5.01 4.625 8.875-.919 4.594-3.476 7.724-6.625 11.125-3.541 2.36-4.828 2.573-9 2-3.508-2.052-5.4-3.276-6.738-7.125-.692-4.135-.485-6.393 1.3-10.25 4.7-5.061 9.825-7.158 16.438-4.625" />
<path id="intro-atlas-dot-11" class="intro-dot" d="M228 141c3 1.625 3 1.625 5 4 .763 3.901.202 5.626-1.687 9.125-5.237 6.51-5.237 6.51-9.493 7.258-3.775.185-6.117.045-9.382-1.946-2.097-3.554-2.186-5.357-1.438-9.437 4.619-6.742 8.529-10.15 17-9" />
<path id="intro-atlas-dot-12" class="intro-dot" d="M275 84c3.306 2.86 3.947 4.582 4.5 8.938-.273 5.174-2.783 8.4-6.437 11.937-2.723 1.485-4.01 1.795-7.063 1.125-3.494-3.184-4.779-4.783-5.625-9.437.915-5.215 3.314-8.902 7.625-12 2.602-.732 4.311-1.034 7-.563" />
<path id="intro-atlas-dot-13" class="intro-dot" d="M174.875 193.438c3.077 2.263 3.077 2.263 3.563 5.313-.478 3.543-.727 3.904-3.313 6.062-5.157 3.61-8.921 3.713-15.125 3.188-3.125-1.126-3.125-1.126-5-3-.625-2.876-.625-2.876 0-6 5.083-6.39 12.134-9.433 19.875-5.563" />
<path id="intro-atlas-dot-14" class="intro-dot" d="M265 125c2.07 1.552 2.88 2.48 3.469 5.016.074 5.273-.726 8.503-4.11 12.609-2.529 2.558-4.388 3.257-7.921 3.688-2.966-.38-3.623-.992-5.438-3.313-.795-4.161-.464-7.955 1.25-11.812L254 129l1.75-2.312c3.193-2.395 5.361-2.183 9.25-1.688" />
<path id="intro-atlas-dot-15" class="intro-dot" d="M281 44c3.395 2.735 4.755 4.933 5.273 9.305.182 4.582.208 6.974-2.398 10.883C281 66 281 66 277.938 66.188 273.81 64.519 272.825 63.07 271 59c-.584-3.779-.682-7.23 0-11 2.876-3.534 5.458-4.932 10-4" />
<path id="intro-atlas-dot-16" class="intro-dot" d="M214 178c2.938 2 2.938 2 5 4-.506 4.425-1.9 6.816-5 10-4.411 2.843-7.779 3.58-13 3-2.437-1.187-2.437-1.187-4-3-.625-2.25-.625-2.25 0-5 4.459-6.66 8.73-9.87 17-9" />
<path id="intro-atlas-dot-17" class="intro-dot" d="M132.375 204.375C135 206 135 206 137 208c.375 2.438.375 2.438 0 5-3.765 3.635-7.7 4.358-12.863 4.281-3.833-.504-6.049-1.949-9.137-4.281-1.187-2.5-1.187-2.5-1-5 4.71-6.056 11.643-6.368 18.375-3.625" />
<path id="intro-atlas-dot-18" class="intro-dot" d="M251 160c2 2 2 2 2 5.188-1.246 4.748-3.46 7.488-7 10.812-3.013 1.507-5.683 1.178-9 1-2-2-2-2-2.5-4.687.702-4.652 3.142-7.143 6.5-10.313 3.673-2.449 5.664-2.315 10-2" />
<path id="intro-atlas-dot-19" class="intro-dot" d="M279.813 6.5c3.188.5 3.188.5 6 3.313 3.16 4.603 3.384 7.688 3.188 13.187l-1 3c-2.625.813-2.625.813-6 1-5.532-3.653-5.532-3.653-6.657-6.887-.37-2.274-.512-4.434-.531-6.738l-.043-2.352c.39-3.415 1.817-3.95 5.043-4.523" />
<path id="intro-atlas-dot-20" class="intro-dot" d="M87 210c3.062 1.248 5.59 2.726 8 5 1 2.813 1 2.813 1 5-2.538 2.648-4.696 3.304-8.25 3.5-5.127-.178-9.022-1.98-12.75-5.5-1-2.812-1-2.812-1-5 3.718-3.88 7.974-3.879 13-3" />
<path id="intro-atlas-dot-21" class="intro-dot" d="m165 224 3 2c.438 2.438.438 2.438 0 5-3.756 3.626-7.437 4.153-12.5 4.188l-2.906.042C150 235 150 235 147 233c.063-2.25.063-2.25 1-5 5.304-4.175 10.333-5.002 17-4" />
<path id="intro-atlas-dot-22" class="intro-dot" d="M300 72.313c2 .688 2 .688 4 2.688.667 4.693 1.14 9.84-1.121 14.124-1.379 1.626-1.379 1.626-3.879 3.876-1.875-.313-1.875-.313-4-1-2.838-4.258-2.52-8.002-2-13 2.832-7.34 2.832-7.34 7-6.688" />
<path id="intro-atlas-dot-23" class="intro-dot" d="M290 109c2.5.313 2.5.313 5 1 1.474 2.949 1.36 4.692 1 8-1.994 4.58-3.798 8.198-8 11-3.517-.517-3.517-.517-5-2-.71-4.107-.754-7.648 1.305-11.34 1.776-2.35 3.611-4.576 5.695-6.66" />
<path id="intro-atlas-dot-24" class="intro-dot" d="M204 214c.594 1.871.594 1.871 1 4-2.852 3.922-6.487 5.47-11 7-6.188.406-6.188.406-9-1 .176-3.867.576-5.565 3.313-8.375 4.693-2.79 10.437-1.93 15.687-1.625" />
<path id="intro-atlas-dot-25" class="intro-dot" d="M296 36c3.212.26 4.615.575 6.813 3 1.591 4.021 1.776 7.722 1.187 12-1.02 2.277-1.02 2.277-2 4-2.312-.187-2.312-.187-5-1-1.75-2.437-1.75-2.437-3-5l-1-2c-.415-4.672.3-7.175 3-11" />
<path id="intro-atlas-dot-26" class="intro-dot" d="m280.313 144.813 1.688 1.188c-.497 5.086-1.939 8.948-5 13-2.5 2-2.5 2-5 3-2.313-.313-2.313-.313-4-1-.61-7.077-.61-7.077 2.187-11.313 6.452-6.165 6.452-6.165 10.125-4.875" />
<path id="intro-atlas-dot-27" class="intro-dot" d="M236 193c.75 2.188.75 2.188 1 5-2.722 4.853-6.904 7.153-12 9-3 .25-3 .25-5 0-.664-1.777-.664-1.777-1-4 3.8-6.644 9.301-10.537 17-10" />
<path id="intro-atlas-dot-28" class="intro-dot" d="m116.875 227.75 3.742-.078c3.532.342 4.86.919 7.383 3.328-.312 1.938-.312 1.938-1 4-5.612 1.87-11.173 1.756-16.625-.5L108 233v-4c2.94-1.47 5.604-1.21 8.875-1.25" />
<path id="intro-atlas-dot-29" class="intro-dot" d="M265 171c-.338 5.4-3.51 9.115-7 13-3.054 2.273-4.2 3-8 3 .26-6.366 2.392-9.656 7-14 3.228-2.152 4.284-2.2 8-2" /></g></g>
<g id="intro-native-wordmark"><g mask="url(#intro-atlas-native-counters)"><path  d="M454 95h64l8.688 23.063a13526 13526 0 0 0 21.875 57.625l1.32 3.452 5.264 13.772a18435 18435 0 0 1 14.657 38.505l9.363 24.656A73126 73126 0 0 0 597 303l1.297 3.41a20225 20225 0 0 0 18.487 48.417l3.52 9.195c14.219 40.427 14.219 40.427 35.446 77.275C657 443 657 443 657 445h-85l1-10c.592-13.066.536-26.147-2-39l-.654-3.424c-2.945-13.845-8.045-26.821-13.096-40.014q-1.997-5.252-3.985-10.509-1.23-3.246-2.47-6.487l-1.114-2.927-.987-2.577C548 328 548 328 548 326l-136 1c-13.541 38.69-25.338 72.647-16 113l1 5h-56c1.598-3.995 3.286-7.397 5.375-11.125 3.822-7.034 7.171-14.257 10.438-21.562l1.358-3.01c9.642-21.796 17.75-44.26 25.765-66.69q1.784-4.982 3.574-9.961 2.182-6.07 4.36-12.142c3.95-11.017 7.924-22.026 11.91-33.031l3.108-8.591 7.123-19.68q6.233-17.22 12.458-34.443a32338 32338 0 0 1 7.033-19.434 28532 28532 0 0 0 5.925-16.377q1.805-4.995 3.615-9.989A3679 3679 0 0 0 452 154l1.118-3.15c1.012-2.868 2.007-5.742 2.995-8.62l.877-2.482c4.541-13.441 2.987-28.98-2.99-41.748z" />
<path  d="M727 132h5v71h68v19h-68l.477 17.168c.46 18.169.643 36.334.734 54.508l.043 7.797c.058 10.67.115 21.34.147 32.011.02 6.636.057 13.272.101 19.908q.021 3.74.026 7.479c-.633 24.06-.633 24.06 10 44.805 8.017 7.603 16.712 8.868 27.366 8.729 14.29-.486 27.568-5.767 40.106-12.405-6.754 17.649-21.962 33.085-39 41-16.73 7.082-37.18 9.543-54.516 2.59-15.679-7.07-24.28-18.036-30.492-33.89-4.48-12.191-5.295-24.636-5.394-37.527q-.026-2.154-.054-4.307c-.057-4.658-.093-9.317-.126-13.975l-.018-2.414c-.056-7.526-.104-15.052-.134-22.578-.038-9.58-.114-19.157-.24-28.736-.086-6.766-.13-13.531-.142-20.297-.009-4.03-.036-8.058-.108-12.088-.067-3.787-.082-7.57-.057-11.357q0-2.075-.057-4.149c-.158-5.895-.225-10.44 3.713-15.057A74 74 0 0 1 693 233l2.497-1.555c2.047-1.22 4.123-2.314 6.253-3.382l2.129-1.127c4.447-2.298 8.124-3.508 13.121-4.936l-70-1v-14l4.5-2c17.039-7.773 31.944-15.933 45.5-29l1.96-1.77c12.085-11.204 20.907-27.55 28.04-42.23" />
<path  d="m899 84 .004 1.92a182014 182014 0 0 0 .313 126.437l.008 2.73q.059 21.829.102 43.657.048 22.428.116 44.857.043 13.82.064 27.639.016 9.5.052 19c.013 3.643.024 7.287.025 10.931.011 19.773.42 39.162 4.816 58.517l.645 2.966a594 594 0 0 0 2.457 10.876l.554 2.365.494 2.046C909 440 909 440 909 445h-71c1.125-11.249 1.125-11.249 2.121-16.094l.647-3.183c.22-1.064.442-2.127.67-3.223l.658-3.223c1.722-8.429 1.722-8.429 2.475-11.933 1.952-9.263 2.578-18.374 2.57-27.827l.008-3.052c.01-3.35.01-6.699.012-10.048l.015-7.238q.019-9.806.024-19.613.005-6.139.012-12.277.019-17.04.026-34.08v-4.402l.003-6.634q.007-17.73.045-35.459.035-18.26.037-36.519-.002-10.228.025-20.457.023-9.636.01-19.271-.002-3.515.013-7.028c.076-19.084-1.675-37.012-6.996-55.376q-.928-3.295-1.852-6.59l-.815-2.836c-.68-2.533-1.225-5.06-1.708-7.637l2.034-.212c14.608-1.536 29.155-3.282 43.674-5.517l3.335-.501 2.907-.45c3.71-.39 7.32-.34 11.05-.32" />
<path  d="M1121.25 220.438c6.698 6.279 11.62 12.345 15.75 20.563l1.094 2.082c5.36 10.944 6.352 22.838 6.307 34.848l.02 3.982q.024 4.24.02 8.48c-.002 4.477.018 8.954.04 13.431.041 8.69.06 17.381.077 26.072q.032 16.62.107 33.239.03 6.664.03 13.33.005 3.147.018 6.296.015 3.822.008 7.644c.064 10.61 1.043 21.084 8.654 29.096 7.02 2.904 15.3 2.202 22.625.5-1.228 8.045-6.503 14.353-12.668 19.433-9.95 6.683-22.435 9.836-34.332 8.566-12.637-2.76-21.203-7.656-29-18-2.957-4.733-4.652-9.608-6-15-2.912 2.142-5.29 4.292-7.5 7.125-14.411 17.082-37.792 25.943-59.5 27.875-22.125 1.461-42.783-3.418-60-18-.97-.7-1.939-1.402-2.937-2.125-11.771-10.034-20.657-28.13-21.973-43.566-.843-21.665 2.613-39.87 17.637-56.344 18.881-20.027 46.5-29.857 73.637-31.121 44.866-1.228 44.866-1.228 59.636 6.156q-.178-8.724-.372-17.45-.065-2.962-.125-5.926-.089-4.28-.187-8.557l-.05-2.643c-.381-16.045-3.78-30.064-14.918-42.228-7.782-7.36-16.6-8.878-26.97-8.802-8.607.353-15.686 2.895-23.378 6.606l-2.069.975c-11.48 5.483-21.775 12.4-31.931 20.025l-1.911 1.432c-9.837 7.42-19.801 15.257-27.714 24.756L961 276.001h-2v-57c27.694-9.232 27.694-9.232 37.5-11.313l3.285-.726A951 951 0 0 1 1009 205l2.422-.51c4.51-.941 9.028-1.759 13.578-2.49l3.797-.62c31.327-4.64 67.553-2.679 92.453 19.058" />
<path  d="m1347 209 2.225.728c8.89 2.942 17.199 6.374 25.775 10.272v54c-3.924-1.962-5.497-3.395-8.312-6.625l-2.387-2.715-4.196-4.851c-13.454-15.52-29.85-29.183-49.105-36.809l-2.574-1.055c-14.033-5.468-30.548-4.175-44.426 1.055-8.589 3.958-14.441 9.118-18.375 17.75-2.967 8.228-2.574 15.974 1.074 23.91 10.485 18.86 37.499 24.823 56.63 31.068 24.28 7.93 47.438 16.785 65.671 35.272l1.863 1.867c13.31 14.376 14.88 32.342 14.273 50.945-.291 4.682-1.46 8.834-3.136 13.188l-1.137 3.047c-6.91 17.528-19.007 30.904-36.113 39.203-15.855 6.844-31.221 10.125-48.5 10l-2.011-.008c-9.592-.047-18.807-.413-28.239-2.242l-3.516-.59c-20.528-3.69-39.316-11.39-58.484-19.41v-58h2c1.37 1.547 2.67 3.157 3.938 4.79 4.993 6.232 10.402 11.95 16.062 17.585l1.515 1.513c20.23 20.113 42.888 37.4 72.52 37.359 12.006-.178 23.045-3.28 32.29-11.25 7.078-7.315 9.84-15.016 10.112-25.122-.354-10.484-3.413-18.06-11.007-25.39-2.056-1.678-4.18-3.077-6.43-4.485l-3.098-1.95c-13.056-7.704-27.581-12.045-41.844-16.943-26.999-9.307-60.937-21.684-74.851-48.572-6.683-14.52-8.045-33.49-2.453-48.66L1204 245l1.215-2.812c8.944-18.252 26.33-29.746 45.047-36.336 31.66-9.782 65.515-7.145 96.738 3.148" />
<path  d="m1434.063 63.563 2.802.019c10.964.247 20.545 3.048 30.136 8.419v17l-2.75-2.438c-14.668-12.9-14.668-12.9-33.153-16.883-5.965.911-10.527 3.49-14.097 8.32-1.502 4.673-1.331 8.071.312 12.688 5.044 7.421 14.983 10.375 22.887 13.684 21.345 9.045 21.345 9.045 26.8 16.629l1.293 1.722c3.84 6.173 3.606 13.265 2.708 20.277-2.115 6.98-5.898 12.065-12 16-6.833 3.47-12.945 4.686-20.563 4.563l-2.877-.024c-12.12-.338-22.042-3.528-32.56-9.538v-18c3.82 3.183 7.397 6.383 10.812 10 7.06 7.17 14.414 11.066 24.438 11.374 6.055-.047 10.391-1.027 14.75-5.375 3.948-5.405 3.747-10.536 3-17-2.582-6.336-8.014-9.221-14-12-4.185-1.571-8.427-2.971-12.663-4.394-10.858-3.705-20.09-8.755-26.275-18.73-2.224-6.264-2.282-13.503-.031-19.727 3.365-6.188 7.75-9.954 13.969-13.148l3.156-1.633c4.553-1.898 9.032-1.86 13.906-1.805" />
<path  d="m1530.125 63.688 2.835.013c10.955.178 20.021 3.027 30.04 7.3v19h-2a93 93 0 0 1-3.562-4.563c-5.986-7.627-12.668-13.647-22.438-15.437-7.158-.82-13.14-.432-19 4-7.52 6.636-11.96 15.201-14 25-.226 4.059-.185 8.122-.187 12.187l-.038 3.33c-.023 13.132 2.673 26.785 12.225 36.482 6.544 5.747 12.54 6.658 21.094 6.602 5.005-.77 9.296-2.558 13.906-4.602.088-3.645.14-7.29.188-10.937l.076-3.096c.063-6.636-.828-11.824-3.264-17.967l-2-6h25c-2 9-2 9-3 12-.15 2.137-.249 4.278-.316 6.418l-.127 3.8-.12 3.97-.13 4.006q-.16 4.903-.307 9.807c-15.437 7.596-31.41 12.284-48.637 8.12-12.297-4.77-21.942-13.696-27.676-25.496-5.77-13.464-7.481-29.986-2.015-43.882 6.776-13.99 15.736-22.748 30.066-28.922 4.491-1.13 8.773-1.161 13.387-1.133" />
<path  d="M1587 65q9.152-.074 18.304-.11 3.11-.015 6.218-.04a1580 1580 0 0 1 8.974-.045l2.776-.032c10.254-.001 18.874 1.671 26.49 8.899 5.62 6.15 6.79 11.99 6.605 20.226-.716 6.046-2.913 10.815-7.387 14.985-5.07 3.677-9.836 5.142-15.98 6.117v2l2.563.625c12.754 5.102 17.742 19.673 23.556 31.135l1.393 2.705 1.233 2.425c1.224 2.058 2.574 3.433 4.255 5.11v2c-2.88.245-5.74.422-8.625.563l-2.45.228c-2.563.094-4.48.002-6.925-.791-2.738-2.618-4.323-5.63-6-9l-1.283-2.564c-1.684-3.51-3.267-7.06-4.84-10.62-3.432-7.503-7.972-16.278-15.647-20.185-3.147-.89-6.216-1.029-9.476-1.225l-3.83-.24L1604 117q.143 6.024.317 12.048.082 3.03.152 6.057c.26 8.811 1.14 17.194 2.531 25.895h-21c1-8 1-8 1.554-11.061.51-3.358.573-6.566.575-9.963l.006-2.048q.004-3.33-.002-6.658l.003-4.671q.002-4.89-.006-9.782-.006-6.226.004-12.453.004-4.824 0-9.65 0-2.293.002-4.585c.01-8.424-.156-16.753-1.136-25.129" /></g></g>
</g>
<clipPath id="intro-field-window"><rect id="intro-field-clip" /></clipPath><clipPath id="intro-paper-window"><rect id="intro-paper-clip" /></clipPath></defs><rect id="intro-field" fill="#256c50" /><g clip-path="url(#intro-field-window)"><g id="intro-ivory" fill="#f3f1e3"><use href="#intro-native-atlas-mark" /></g></g><g clip-path="url(#intro-paper-window)"><g id="intro-ink" fill="#222221"><use href="#intro-native-atlas-mark" /></g></g></svg>